<svg xmlns="http://www.w3.org/2000/svg" xmlns:xlink="http://www.w3.org/1999/xlink" viewBox="0 0 364.58 84.18"><defs><style>.cls-1{fill:none;}.cls-2{font-size:72px;font-family:Futura-Medium, Futura;}.cls-2,.cls-6{fill:#2980b9;}.cls-3,.cls-4{fill:#fff;}.cls-4{letter-spacing:-0.01em;}.cls-5{clip-path:url(#clip-path);}</style><clipPath id="clip-path" transform="translate(-366.21 -190.47)"><rect class="cls-1" x="366.82" y="196.59" width="50.59" height="42.13" transform="translate(-21.12 43.39) rotate(-6.17)"/></clipPath></defs><title>codegrade</title><g id="Layer_1" data-name="Layer 1"><text class="cls-2" transform="translate(8.27 63.4)">code<tspan class="cls-3" x="160.59" y="0">g</tspan><tspan class="cls-4" x="203.7" y="0">r</tspan><tspan class="cls-3" x="230.13" y="0">ade</tspan></text><g id="Artwork_4" data-name="Artwork 4"><g class="cls-5"><g class="cls-5"><path class="cls-6" d="M389.85,196.72a.9.9,0,0,0-.43.15l-22.74,15.58a1.14,1.14,0,0,0,.21,2l3.66,1.48,1.7,15.74a3.25,3.25,0,0,0-1.68,3.26c.15,1.38,2,3.74,2.73,4.69l1,1.2.68-1.37c.55-1.1,1.82-3.79,1.67-5.17a3.25,3.25,0,0,0-2.34-2.82l-1.58-14.66,2.13.86-.31-2.84c-.41-3.75,4.54-5.05,6.65-5.61A86.76,86.76,0,0,1,401,207c2.18.09,7.28.31,7.69,4.06l.31,2.84,7-4.83a1.14,1.14,0,0,0-.21-2L390.3,196.77a.89.89,0,0,0-.45-.05m1.4,13c-5.64.61-15,2.05-14.74,4.87l.54,5c2-1.19,6.17-2.48,14.9-3.42s13.09-.57,15.28.16l-.54-5c-.3-2.82-9.81-2.22-15.44-1.61m.93,8.65c-10.45,1.13-14.65,2.92-14.86,3.79.32,2.81,9.81,2.22,15.44,1.61s14.62-2,14.73-4.7a.94.94,0,0,0,0-.17c-.36-.8-4.85-1.66-15.32-.53" transform="translate(-366.21 -190.47)"/></g></g></g></g></svg>