<svg id="Layer_1" data-name="Layer 1" xmlns="http://www.w3.org/2000/svg" xmlns:xlink="http://www.w3.org/1999/xlink" viewBox="0 0 361.27 78.08"><defs><style>.cls-1{fill:none;}.cls-2{isolation:isolate;}.cls-3{fill:#2980b9;}.cls-4{fill:#fff;}.cls-5{clip-path:url(#clip-path);}</style><clipPath id="clip-path" transform="translate(0.03 -4.02)"><rect class="cls-1" x="0.61" y="6.11" width="50.59" height="42.13" transform="translate(-2.77 2.94) rotate(-6.17)"/></clipPath></defs><title>codegrade</title><g class="cls-2"><g class="cls-2"><path class="cls-3" d="M39.91,30.63V41.15a19.29,19.29,0,0,0-4.85-4.54,9.45,9.45,0,0,0-5-1.27,9.77,9.77,0,0,0-7.42,3.13,11,11,0,0,0-3,7.84,11.22,11.22,0,0,0,2.85,7.91,9.6,9.6,0,0,0,7.35,3.09,10.05,10.05,0,0,0,5-1.23,19.93,19.93,0,0,0,5-4.64V61.89a20.77,20.77,0,0,1-9.63,2.5A18.43,18.43,0,0,1,17,59.25a17.13,17.13,0,0,1-5.34-12.83,17.36,17.36,0,0,1,5.41-12.94,18.32,18.32,0,0,1,13.29-5.27A19.86,19.86,0,0,1,39.91,30.63Z" transform="translate(0.03 -4.02)"/><path class="cls-3" d="M46,46a17,17,0,0,1,5.31-12.62,17.79,17.79,0,0,1,12.94-5.2,17.89,17.89,0,0,1,13,5.24,17.43,17.43,0,0,1,5.27,12.87,17.34,17.34,0,0,1-5.31,12.9,18.14,18.14,0,0,1-13.11,5.17,17.4,17.4,0,0,1-12.9-5.27A17.73,17.73,0,0,1,46,46Zm8.09.14a11.55,11.55,0,0,0,2.74,8.12,9.65,9.65,0,0,0,7.42,3,9.64,9.64,0,0,0,7.42-3,11.26,11.26,0,0,0,2.78-8,11.26,11.26,0,0,0-2.78-8,9.66,9.66,0,0,0-7.42-3,9.57,9.57,0,0,0-7.35,3A11,11,0,0,0,54,46.17Z" transform="translate(0.03 -4.02)"/><path class="cls-3" d="M116.09,4H124V63.4h-7.95V59.81a14.76,14.76,0,0,1-10.58,4.57,15.07,15.07,0,0,1-11.67-5.13,19.09,19.09,0,0,1-4.61-13.08,18.45,18.45,0,0,1,4.61-12.8,14.79,14.79,0,0,1,22.25-.25ZM97.32,46.17a11.93,11.93,0,0,0,2.64,8,8.64,8.64,0,0,0,6.82,3.13,9.08,9.08,0,0,0,7.1-3,11.71,11.71,0,0,0,2.71-7.95,11.71,11.71,0,0,0-2.71-7.95,9,9,0,0,0-7-3.06A8.74,8.74,0,0,0,100,38.44,11.4,11.4,0,0,0,97.32,46.17Z" transform="translate(0.03 -4.02)"/><path class="cls-3" d="M165.21,48.14H140.67a10.4,10.4,0,0,0,2.74,6.71,8.36,8.36,0,0,0,6.22,2.46,8.09,8.09,0,0,0,4.89-1.41,20,20,0,0,0,4.32-5.2l6.68,3.73A26.63,26.63,0,0,1,162.25,59,17.38,17.38,0,0,1,158.56,62a14.81,14.81,0,0,1-4.25,1.78,20.71,20.71,0,0,1-5,.56q-7.66,0-12.3-4.92t-4.64-13.15q0-8.12,4.5-13.15a15.51,15.51,0,0,1,12-5q7.56,0,12,4.82t4.36,13.25Zm-8.12-6.47q-1.65-6.33-8-6.33a8.19,8.19,0,0,0-2.71.44,7.74,7.74,0,0,0-2.3,1.27,8,8,0,0,0-1.78,2,9.23,9.23,0,0,0-1.12,2.64Z" transform="translate(0.03 -4.02)"/></g><g class="cls-2"><path class="cls-4" d="M207,62.59q0,2.43-.16,4.27a29.68,29.68,0,0,1-.44,3.25,14.49,14.49,0,0,1-3.3,6.64q-4.64,5.34-12.76,5.34A17,17,0,0,1,179,78.41a15.09,15.09,0,0,1-5.27-10.51h7.95a9,9,0,0,0,1.51,3.9,8.49,8.49,0,0,0,7.17,3.2q8.68,0,8.68-10.65V59.57a14.77,14.77,0,0,1-10.86,4.82,14.59,14.59,0,0,1-11.46-5.06,18.76,18.76,0,0,1-4.5-12.83,19.75,19.75,0,0,1,4.18-12.73,14.54,14.54,0,0,1,11.88-5.55A13.8,13.8,0,0,1,199.06,33V29.16H207Zm-7.59-16.24a11.53,11.53,0,0,0-2.67-8,8.84,8.84,0,0,0-6.93-3.06,8.52,8.52,0,0,0-7.1,3.34,12.12,12.12,0,0,0-2.36,7.73A12,12,0,0,0,182.68,54a8.53,8.53,0,0,0,7.1,3.27A8.68,8.68,0,0,0,197,54,11.77,11.77,0,0,0,199.38,46.35Z" transform="translate(0.03 -4.02)"/></g><g class="cls-2"><path class="cls-4" d="M217,29.16h7.91v3.06a15.1,15.1,0,0,1,3.87-3.13,8.87,8.87,0,0,1,4.08-.88,12.78,12.78,0,0,1,6.54,2l-3.62,7.24a7.55,7.55,0,0,0-4.39-1.62q-6.47,0-6.47,9.77V63.4H217Z" transform="translate(0.03 -4.02)"/></g><g class="cls-2"><path class="cls-4" d="M268.63,29.16h7.95V63.4h-7.95V59.81q-4.89,4.57-10.51,4.57a15.14,15.14,0,0,1-11.74-5.13,19.08,19.08,0,0,1-4.61-13.08,18.5,18.5,0,0,1,4.61-12.83,14.84,14.84,0,0,1,11.53-5.13,14.56,14.56,0,0,1,10.72,4.92Zm-18.77,17a11.93,11.93,0,0,0,2.64,8,8.64,8.64,0,0,0,6.82,3.13,9.08,9.08,0,0,0,7.1-3,11.71,11.71,0,0,0,2.71-7.95,11.71,11.71,0,0,0-2.71-7.95,9,9,0,0,0-7-3.06,8.74,8.74,0,0,0-6.82,3.09A11.4,11.4,0,0,0,249.86,46.17Z" transform="translate(0.03 -4.02)"/><path class="cls-4" d="M311.81,4h7.95V63.4h-7.95V59.81a14.76,14.76,0,0,1-10.58,4.57,15.07,15.07,0,0,1-11.67-5.13,19.08,19.08,0,0,1-4.61-13.08,18.45,18.45,0,0,1,4.61-12.8,14.79,14.79,0,0,1,22.25-.25ZM293,46.17a11.93,11.93,0,0,0,2.64,8,8.64,8.64,0,0,0,6.82,3.13,9.08,9.08,0,0,0,7.1-3,11.71,11.71,0,0,0,2.71-7.95,11.71,11.71,0,0,0-2.71-7.95,9,9,0,0,0-7-3.06,8.74,8.74,0,0,0-6.82,3.09A11.4,11.4,0,0,0,293,46.17Z" transform="translate(0.03 -4.02)"/><path class="cls-4" d="M360.92,48.14H336.38a10.4,10.4,0,0,0,2.74,6.71,8.36,8.36,0,0,0,6.22,2.46,8.09,8.09,0,0,0,4.89-1.41,20,20,0,0,0,4.32-5.2l6.68,3.73A26.68,26.68,0,0,1,358,59,17.38,17.38,0,0,1,354.28,62,14.81,14.81,0,0,1,350,63.82a20.72,20.72,0,0,1-5,.56q-7.67,0-12.3-4.92t-4.64-13.15q0-8.12,4.5-13.15a15.51,15.51,0,0,1,12-5q7.56,0,12,4.82T361,46.28Zm-8.12-6.47q-1.65-6.33-8-6.33a8.19,8.19,0,0,0-2.71.44,7.73,7.73,0,0,0-2.3,1.27A8,8,0,0,0,338,39a9.23,9.23,0,0,0-1.12,2.64Z" transform="translate(0.03 -4.02)"/></g></g><g id="Layer_1-2" data-name="Layer 1"><g class="cls-5"><g id="Artwork_4" data-name="Artwork 4"><g class="cls-5"><path class="cls-3" d="M23.64,6.25a.9.9,0,0,0-.43.15L.47,22a1.14,1.14,0,0,0,.21,2l3.66,1.48L6,41.2a3.25,3.25,0,0,0-1.68,3.26c.15,1.38,2,3.74,2.73,4.69l1,1.2L8.77,49c.55-1.1,1.82-3.79,1.67-5.17A3.25,3.25,0,0,0,8.1,41L6.52,26.33l2.13.86-.31-2.84C7.93,20.6,12.88,19.3,15,18.74a86.76,86.76,0,0,1,19.8-2.21c2.18.09,7.28.31,7.69,4.06l.31,2.84,7-4.83a1.14,1.14,0,0,0-.21-2L24.09,6.3a.89.89,0,0,0-.45-.05m1.4,13c-5.64.61-15,2.05-14.74,4.87l.54,5c2-1.19,6.17-2.48,14.9-3.42s13.09-.57,15.28.16l-.54-5C40.18,18,30.67,18.64,25,19.25M26,27.9C15.52,29,11.32,30.82,11.11,31.69c.32,2.81,9.81,2.22,15.44,1.61s14.62-2,14.73-4.7a.94.94,0,0,0,0-.17c-.36-.8-4.85-1.66-15.32-.53" transform="translate(0.03 -4.02)"/></g></g></g></g></svg>