<?xml version="1.0" encoding="UTF-8" standalone="no"?>
<svg xmlns:svg="http://www.w3.org/2000/svg" xmlns="http://www.w3.org/2000/svg" viewBox="0 0 54.33149 54.33149" width="54.33149" height="54.33149">
  <rect fill="white" x="0" y="0" width="54.33149" height="54.33149" rx="3" ry="3"/>
  <g transform="translate(2, 5)">
    <path d="m 23.670745,0.00953896 a 0.9,0.9 0 0 0 -0.43,0.15 L 0.50074523,15.759539 a 1.14,1.14 0 0 0 0.21,2 l 3.65999997,1.48 1.66,15.72 a 3.25,3.25 0 0 0 -1.68,3.26 c 0.15,1.38 2,3.74 2.73,4.69 l 1,1.2 0.72,-1.35 c 0.55,-1.1 1.8199998,-3.79 1.6699998,-5.17 a 3.25,3.25 0 0 0 -2.3399998,-2.83 l -1.58,-14.67 2.13,0.86 -0.31,-2.84 c -0.41,-3.75 4.5399998,-5.05 6.6599998,-5.61 a 86.76,86.76 0 0 1 19.8,-2.21 c 2.18,0.09 7.28,0.31 7.69,4.06 l 0.31,2.84 7,-4.83 a 1.14,1.14 0 0 0 -0.21,-2 l -25.5,-10.30000004 a 0.89,0.89 0 0 0 -0.45,-0.05 m 1.4,13.00000004 c -5.64,0.61 -15,2.05 -14.74,4.87 l 0.54,5 c 2,-1.19 6.17,-2.48 14.9,-3.42 8.73,-0.94 13.09,-0.57 15.28,0.16 l -0.54,-5 c -0.3,-2.86 -9.81,-2.22 -15.48,-1.61 m 1,8.65 c -10.48,1.1 -14.68,2.92 -14.89,3.79 0.32,2.81 9.81,2.22 15.44,1.61 5.63,-0.61 14.62,-2 14.73,-4.7 a 0.94,0.94 0 0 0 0,-0.17 c -0.36,-0.8 -4.85,-1.66 -15.32,-0.53" fill="#2980b9" />
  </g>
</svg>
