<?xml version="1.0" standalone="no"?>
<!DOCTYPE svg PUBLIC "-//W3C//DTD SVG 20010904//EN"
 "http://www.w3.org/TR/2001/REC-SVG-20010904/DTD/svg10.dtd">
<svg version="1.0" xmlns="http://www.w3.org/2000/svg"
 width="800.000000pt" height="800.000000pt" viewBox="0 0 800.000000 800.000000"
 preserveAspectRatio="xMidYMid meet">
<metadata>
Created by potrace 1.11, written by Peter Selinger 2001-2013
</metadata>
<g transform="translate(0.000000,800.000000) scale(0.100000,-0.100000)"
fill="#000000" stroke="none">
<path d="M3706 7480 c-21 -12 -43 -25 -50 -31 -6 -5 -38 -27 -71 -49 -33 -22
-69 -46 -80 -54 -11 -8 -135 -93 -275 -190 -140 -96 -361 -247 -490 -336 -803
-551 -1292 -886 -1395 -956 -44 -30 -145 -100 -225 -155 -80 -55 -170 -117
-200 -137 -30 -20 -57 -39 -60 -42 -3 -3 -12 -9 -22 -15 -9 -5 -44 -29 -78
-52 -34 -24 -66 -43 -70 -43 -5 0 -10 -4 -12 -8 -1 -5 -39 -33 -83 -62 -44
-30 -82 -57 -85 -60 -3 -3 -41 -29 -85 -59 -170 -114 -230 -156 -233 -163 -2
-5 -8 -8 -13 -8 -14 0 -96 -59 -129 -93 -19 -20 -40 -82 -40 -118 0 -52 23
-105 62 -141 21 -21 45 -38 54 -38 8 0 22 -4 32 -9 9 -5 40 -18 67 -29 28 -11
94 -39 148 -61 54 -23 105 -41 113 -41 8 0 14 -4 14 -10 0 -5 3 -9 8 -8 11 4
156 -55 164 -67 4 -5 8 -6 8 -1 0 6 3 6 9 0 5 -5 12 -49 16 -98 4 -49 9 -98
11 -110 2 -11 6 -48 9 -81 3 -33 7 -76 10 -95 2 -19 7 -64 11 -100 3 -36 7
-76 9 -90 1 -14 6 -56 10 -95 3 -38 8 -81 10 -95 3 -14 7 -56 11 -95 3 -38 8
-81 9 -95 2 -14 6 -56 10 -95 4 -38 9 -83 11 -100 2 -16 6 -61 10 -100 3 -38
8 -81 10 -95 2 -14 7 -50 9 -80 7 -69 12 -122 19 -185 4 -27 9 -75 12 -105 3
-30 7 -71 9 -90 6 -58 16 -152 21 -205 2 -27 7 -66 10 -85 2 -19 7 -62 10 -95
2 -33 7 -73 9 -90 2 -16 7 -57 10 -90 3 -33 8 -74 10 -92 5 -31 -14 -63 -35
-63 -24 0 -138 -130 -170 -195 -19 -38 -35 -72 -35 -75 -1 -3 -7 -29 -14 -59
-28 -110 0 -260 72 -391 70 -127 181 -298 243 -375 9 -11 27 -37 41 -57 14
-21 29 -38 34 -38 4 0 10 -8 13 -17 3 -10 18 -31 34 -48 15 -16 54 -63 86
-103 32 -40 60 -71 61 -70 17 23 128 240 193 378 113 240 191 505 186 628 -4
87 -12 118 -57 212 -35 72 -141 188 -194 211 -18 8 -33 17 -33 21 0 5 -6 8
-13 8 -18 0 -77 29 -78 38 0 4 -2 25 -4 47 -5 71 -15 169 -20 200 -2 17 -7 57
-10 90 -3 33 -8 76 -11 95 -2 20 -6 58 -9 85 -2 28 -6 70 -9 95 -9 74 -15 132
-22 195 -3 33 -8 76 -10 95 -2 19 -6 60 -9 90 -3 30 -7 69 -10 85 -6 37 -14
120 -21 200 -5 62 -12 120 -14 120 -1 0 -3 23 -5 50 -2 28 -7 73 -10 100 -3
28 -8 69 -10 92 -4 53 -14 138 -21 183 -2 19 -7 62 -10 95 -5 68 -10 118 -19
190 -9 77 -14 116 -18 166 l-5 47 122 -49 c66 -27 130 -54 140 -60 11 -6 32
-13 48 -16 28 -4 28 -4 22 39 -3 24 -7 63 -9 88 -2 25 -4 45 -5 45 -1 0 -3 18
-5 40 -3 37 -10 98 -20 185 -16 127 0 249 45 345 68 143 217 279 420 382 52
26 97 48 100 48 5 0 106 39 145 55 18 8 133 44 273 85 29 9 96 25 150 36 53
11 106 22 117 25 11 2 34 7 50 10 44 9 60 12 60 14 0 1 9 3 20 5 42 7 82 14
155 29 41 8 89 17 105 20 17 3 41 7 55 10 34 7 195 34 245 41 22 4 54 9 70 12
17 3 45 7 63 9 18 1 41 5 50 8 9 3 37 8 62 11 25 3 61 8 80 10 60 9 121 16
154 20 33 3 108 13 166 20 61 9 160 18 405 40 456 40 1116 60 1375 41 369 -27
610 -92 789 -211 81 -54 109 -79 156 -140 38 -51 90 -145 79 -145 -4 0 -2 -6
3 -12 14 -17 26 -80 38 -198 3 -30 8 -71 11 -91 2 -20 7 -59 9 -85 7 -65 19
-168 24 -197 1 -7 49 19 61 33 3 4 61 45 130 92 262 178 423 289 610 419 385
268 366 250 377 340 7 57 -17 126 -56 162 -14 13 -80 45 -146 72 -66 26 -136
54 -155 62 -19 8 -45 19 -57 24 -40 16 -65 26 -179 72 -60 25 -122 49 -137 52
-15 4 -27 11 -27 16 0 5 -10 9 -23 9 -13 0 -27 4 -32 9 -6 4 -82 36 -170 71
-88 35 -164 67 -169 71 -6 5 -16 9 -23 9 -7 0 -37 11 -67 25 -30 14 -58 25
-62 25 -3 0 -34 12 -68 26 -33 14 -83 35 -111 46 -27 12 -63 27 -80 33 -16 7
-133 54 -260 105 -126 51 -241 97 -255 103 -14 5 -29 11 -35 13 -13 4 -303
121 -330 133 -11 5 -67 28 -125 51 -58 23 -118 48 -135 55 -16 7 -133 54 -260
105 -126 51 -241 97 -255 103 -14 6 -27 11 -30 12 -3 1 -18 7 -33 13 -16 7
-30 12 -33 12 -2 0 -23 8 -47 19 -36 16 -155 65 -222 91 -11 4 -36 15 -57 24
-20 9 -40 16 -45 16 -4 1 -26 9 -48 20 -22 11 -43 19 -46 20 -4 0 -24 8 -45
17 -22 9 -41 17 -44 18 -13 4 -48 18 -75 31 -87 40 -215 86 -255 90 -34 4 -54
0 -84 -16z"/>
<path d="M5097 5514 c-1 -1 -83 -5 -182 -9 -99 -3 -196 -8 -215 -10 -43 -4
-209 -17 -270 -20 -25 -1 -74 -6 -110 -9 -36 -4 -90 -9 -120 -12 -30 -2 -73
-6 -95 -9 -22 -2 -67 -7 -100 -10 -33 -3 -69 -7 -80 -9 -11 -2 -54 -7 -95 -11
-71 -7 -99 -11 -110 -15 -3 -1 -9 -2 -14 -1 -5 1 -70 -7 -145 -18 -75 -11
-158 -23 -186 -27 -27 -3 -59 -8 -70 -9 -11 -2 -38 -6 -60 -10 -22 -3 -51 -8
-65 -11 -27 -5 -55 -10 -110 -18 -36 -6 -75 -13 -120 -22 -47 -9 -125 -24
-150 -28 -14 -3 -63 -14 -110 -25 -47 -11 -97 -22 -110 -25 -21 -4 -61 -15
-235 -62 -11 -3 -27 -7 -35 -9 -8 -2 -16 -4 -17 -5 -2 -2 -6 -3 -10 -4 -5 -1
-39 -13 -78 -26 -38 -13 -72 -25 -75 -25 -3 -1 -18 -7 -33 -13 -16 -7 -30 -12
-32 -12 -3 0 -29 -11 -59 -25 -30 -14 -59 -25 -65 -25 -5 0 -11 -3 -13 -7 -3
-7 -32 -25 -100 -60 -41 -21 -144 -123 -163 -163 -23 -45 -23 -190 -1 -320 4
-22 8 -53 21 -190 8 -79 15 -147 20 -180 2 -19 7 -60 10 -90 9 -88 12 -110 17
-115 2 -3 44 16 94 40 124 62 315 134 464 176 25 7 50 14 55 15 23 7 280 73
283 73 1 0 28 5 60 12 31 6 62 12 69 13 7 1 15 5 19 8 3 4 12 4 19 2 7 -3 16
0 20 5 3 6 10 9 14 7 4 -3 27 0 52 5 24 6 60 12 79 15 19 2 46 6 60 9 83 16
134 26 167 30 23 3 94 15 124 20 9 2 40 6 69 10 29 4 60 8 69 10 46 9 177 27
219 30 26 2 47 5 47 5 0 1 11 3 25 5 14 1 50 5 80 9 30 4 71 9 90 11 19 3 58
7 85 11 59 7 97 11 185 19 36 4 81 8 100 10 19 2 67 7 105 10 39 4 86 8 105
10 101 10 165 15 260 21 58 3 125 8 150 10 287 22 890 23 1120 0 154 -16 205
-22 205 -26 0 -1 14 -3 30 -5 52 -6 189 -36 207 -46 10 -5 18 -7 18 -4 0 3 9
1 20 -5 16 -9 20 -8 21 7 1 10 1 22 0 27 -1 5 -4 28 -6 52 -3 24 -7 60 -9 81
-5 41 -16 143 -21 202 -10 95 -16 149 -21 181 -5 34 -11 94 -19 175 -12 133
-47 190 -156 252 -47 27 -190 77 -254 89 -22 4 -47 9 -55 11 -8 2 -31 5 -50 7
-19 2 -51 6 -70 9 -123 19 -288 29 -548 31 -117 1 -214 1 -215 0z"/>
<path d="M5346 4143 c-1 -1 -89 -5 -196 -8 -107 -4 -211 -8 -230 -10 -19 -2
-82 -6 -140 -10 -58 -3 -127 -8 -155 -11 -27 -2 -79 -7 -115 -10 -129 -10
-259 -23 -405 -40 -88 -10 -104 -12 -170 -19 -101 -11 -129 -14 -155 -19 -25
-4 -128 -18 -165 -21 -28 -3 -106 -14 -131 -19 -12 -2 -45 -7 -75 -11 -30 -3
-61 -8 -69 -10 -8 -2 -37 -6 -64 -10 -27 -3 -52 -8 -56 -10 -3 -2 -26 -6 -51
-9 -24 -3 -55 -8 -69 -11 -78 -16 -139 -27 -165 -31 -16 -3 -41 -7 -55 -11
-14 -3 -32 -7 -40 -9 -8 -1 -26 -5 -40 -8 -31 -7 -69 -15 -95 -20 -37 -7 -120
-28 -135 -33 -8 -3 -24 -7 -36 -8 -11 -2 -40 -9 -65 -16 -24 -7 -47 -13 -51
-15 -5 -1 -9 -2 -10 -4 -2 -1 -11 -3 -21 -5 -84 -16 -334 -107 -442 -161 -106
-53 -165 -102 -169 -140 -7 -62 66 -147 166 -196 52 -26 159 -63 208 -72 14
-3 35 -7 46 -10 50 -11 137 -24 214 -32 125 -13 149 -14 498 -27 28 -1 52 2
52 6 0 5 4 6 9 3 8 -5 101 -10 111 -6 3 1 59 3 125 5 133 3 328 13 390 19 22
2 81 7 130 10 92 7 168 13 240 21 22 2 76 7 120 11 44 3 89 8 100 10 11 3 49
7 85 9 36 3 76 7 90 10 14 2 52 7 85 11 33 3 69 8 80 10 11 2 45 6 76 9 31 3
67 8 80 10 28 6 90 15 139 20 19 2 44 6 55 8 20 4 96 16 147 22 28 4 126 22
168 30 14 3 39 8 55 11 85 14 125 22 225 44 47 10 96 21 110 24 48 10 72 15
90 21 10 3 27 8 37 10 42 9 202 55 247 70 26 9 56 18 65 20 9 2 32 10 51 18
54 22 75 30 80 32 27 9 72 29 105 46 115 60 133 71 153 89 12 11 24 20 28 20
7 0 65 59 90 92 18 23 43 107 39 131 -3 12 -16 31 -30 43 -42 34 -198 80 -330
98 -101 14 -134 18 -190 21 -33 2 -109 7 -170 11 -101 6 -494 12 -499 7z"/>
</g>
</svg>
